{
	"asset":{
		"generator":"Khronos glTF Blender I/O v5.0.21",
		"version":"2.0"
	},
	"extensionsUsed":[
		"KHR_materials_specular",
		"KHR_materials_sheen",
		"EXT_texture_webp",
		"KHR_texture_transform"
	],
	"extensionsRequired":[
		"EXT_texture_webp",
		"KHR_texture_transform"
	],
	"scene":0,
	"scenes":[
		{
			"name":"Scene",
			"nodes":[
				0,
				1,
				2,
				3,
				4,
				5
			]
		}
	],
	"nodes":[
		{
			"mesh":0,
			"name":"Fringe",
			"rotation":[
				-0.70710688829422,
				0,
				0,
				0.7071066498756409
			]
		},
		{
			"mesh":1,
			"name":"Frame",
			"rotation":[
				-0.70710688829422,
				0,
				0,
				0.7071066498756409
			]
		},
		{
			"mesh":2,
			"name":"Frame_Fabric",
			"rotation":[
				-0.70710688829422,
				0,
				0,
				0.7071066498756409
			]
		},
		{
			"mesh":3,
			"name":"Paisley",
			"rotation":[
				-0.70710688829422,
				0,
				0,
				0.7071066498756409
			]
		},
		{
			"mesh":4,
			"name":"Stripes",
			"rotation":[
				-0.70710688829422,
				0,
				0,
				0.7071066498756409
			]
		},
		{
			"mesh":5,
			"name":"Brown",
			"rotation":[
				-0.70710688829422,
				0,
				0,
				0.7071066498756409
			]
		}
	],
	"materials":[
		{
			"alphaMode":"BLEND",
			"extensions":{
				"KHR_materials_specular":{
					"specularFactor":0.30000001192092896
				},
				"KHR_materials_sheen":{
					"sheenColorFactor":[
						0.3921568989753723,
						0.29019609093666077,
						0.20000001788139343
					],
					"sheenRoughnessFactor":0.4000000059604645
				}
			},
			"name":"Fringe",
			"normalTexture":{
				"index":0
			},
			"occlusionTexture":{
				"index":1,
				"texCoord":1
			},
			"pbrMetallicRoughness":{
				"baseColorTexture":{
					"index":2
				},
				"roughnessFactor":0.800000011920929
			}
		},
		{
			"name":"Frame",
			"normalTexture":{
				"index":3
			},
			"occlusionTexture":{
				"index":4
			},
			"pbrMetallicRoughness":{
				"baseColorTexture":{
					"index":5
				},
				"metallicRoughnessTexture":{
					"index":4
				}
			}
		},
		{
			"extensions":{
				"KHR_materials_specular":{
					"specularFactor":0.30000001192092896
				},
				"KHR_materials_sheen":{
					"sheenColorFactor":[
						0.3921568989753723,
						0.29019609093666077,
						0.20000001788139343
					],
					"sheenRoughnessFactor":0.4000000059604645
				}
			},
			"name":"Frame_Fabric",
			"normalTexture":{
				"extensions":{
					"KHR_texture_transform":{
						"scale":[
							10,
							10
						]
					}
				},
				"index":6,
				"scale":1.5
			},
			"occlusionTexture":{
				"index":7
			},
			"pbrMetallicRoughness":{
				"baseColorTexture":{
					"extensions":{
						"KHR_texture_transform":{
							"scale":[
								10,
								10
							]
						}
					},
					"index":8
				},
				"metallicRoughnessTexture":{
					"index":7
				},
				"roughnessFactor":0.800000011920929
			}
		},
		{
			"extensions":{
				"KHR_materials_specular":{
					"specularFactor":0.30000001192092896
				},
				"KHR_materials_sheen":{
					"sheenColorFactor":[
						0.3921568989753723,
						0.29019609093666077,
						0.20000001788139343
					],
					"sheenRoughnessFactor":0.4000000059604645
				}
			},
			"name":"Paisley",
			"normalTexture":{
				"extensions":{
					"KHR_texture_transform":{
						"scale":[
							5,
							6
						]
					}
				},
				"index":9,
				"scale":1.5
			},
			"occlusionTexture":{
				"index":10
			},
			"pbrMetallicRoughness":{
				"baseColorTexture":{
					"extensions":{
						"KHR_texture_transform":{
							"scale":[
								5,
								6
							]
						}
					},
					"index":11
				},
				"metallicRoughnessTexture":{
					"index":10
				},
				"roughnessFactor":0.800000011920929
			}
		},
		{
			"extensions":{
				"KHR_materials_specular":{
					"specularFactor":0.30000001192092896
				},
				"KHR_materials_sheen":{
					"sheenColorFactor":[
						0.3921568989753723,
						0.29019609093666077,
						0.20000001788139343
					],
					"sheenRoughnessFactor":0.4000000059604645
				}
			},
			"name":"Striped",
			"normalTexture":{
				"extensions":{
					"KHR_texture_transform":{
						"scale":[
							30,
							30
						]
					}
				},
				"index":12,
				"scale":2
			},
			"occlusionTexture":{
				"index":13
			},
			"pbrMetallicRoughness":{
				"baseColorTexture":{
					"extensions":{
						"KHR_texture_transform":{
							"scale":[
								30,
								30
							]
						}
					},
					"index":14
				},
				"metallicRoughnessTexture":{
					"index":13
				},
				"roughnessFactor":0.800000011920929
			}
		},
		{
			"extensions":{
				"KHR_materials_specular":{
					"specularFactor":0.30000001192092896
				},
				"KHR_materials_sheen":{
					"sheenColorFactor":[
						0.3921568989753723,
						0.29019609093666077,
						0.20000001788139343
					],
					"sheenRoughnessFactor":0.4000000059604645
				}
			},
			"name":"Brown",
			"normalTexture":{
				"extensions":{
					"KHR_texture_transform":{
						"scale":[
							10,
							10
						]
					}
				},
				"index":15,
				"scale":1.5
			},
			"occlusionTexture":{
				"index":16
			},
			"pbrMetallicRoughness":{
				"baseColorTexture":{
					"extensions":{
						"KHR_texture_transform":{
							"scale":[
								10,
								10
							]
						}
					},
					"index":17
				},
				"metallicRoughnessTexture":{
					"index":16
				},
				"roughnessFactor":0.800000011920929
			}
		}
	],
	"meshes":[
		{
			"name":"Fringe",
			"primitives":[
				{
					"attributes":{
						"POSITION":0,
						"NORMAL":1,
						"TEXCOORD_0":2,
						"TEXCOORD_1":3,
						"COLOR_0":4
					},
					"indices":5,
					"material":0
				}
			]
		},
		{
			"name":"Frame",
			"primitives":[
				{
					"attributes":{
						"POSITION":6,
						"NORMAL":7,
						"TEXCOORD_0":8
					},
					"indices":9,
					"material":1
				}
			]
		},
		{
			"name":"Frame_Fabric",
			"primitives":[
				{
					"attributes":{
						"POSITION":10,
						"NORMAL":11,
						"TEXCOORD_0":12,
						"COLOR_0":13
					},
					"indices":14,
					"material":2
				}
			]
		},
		{
			"name":"Paisley",
			"primitives":[
				{
					"attributes":{
						"POSITION":15,
						"NORMAL":16,
						"TEXCOORD_0":17,
						"COLOR_0":18
					},
					"indices":19,
					"material":3
				}
			]
		},
		{
			"name":"Stripes",
			"primitives":[
				{
					"attributes":{
						"POSITION":20,
						"NORMAL":21,
						"TEXCOORD_0":22,
						"COLOR_0":23
					},
					"indices":24,
					"material":4
				}
			]
		},
		{
			"name":"Brown",
			"primitives":[
				{
					"attributes":{
						"POSITION":25,
						"NORMAL":26,
						"TEXCOORD_0":27,
						"COLOR_0":28
					},
					"indices":29,
					"material":5
				}
			]
		}
	],
	"textures":[
		{
			"extensions":{
				"EXT_texture_webp":{
					"source":0
				}
			},
			"sampler":0
		},
		{
			"extensions":{
				"EXT_texture_webp":{
					"source":1
				}
			},
			"sampler":0
		},
		{
			"extensions":{
				"EXT_texture_webp":{
					"source":2
				}
			},
			"sampler":0
		},
		{
			"extensions":{
				"EXT_texture_webp":{
					"source":3
				}
			},
			"sampler":0
		},
		{
			"extensions":{
				"EXT_texture_webp":{
					"source":4
				}
			},
			"sampler":0
		},
		{
			"extensions":{
				"EXT_texture_webp":{
					"source":5
				}
			},
			"sampler":0
		},
		{
			"extensions":{
				"EXT_texture_webp":{
					"source":6
				}
			},
			"sampler":0
		},
		{
			"extensions":{
				"EXT_texture_webp":{
					"source":4
				}
			},
			"sampler":0
		},
		{
			"extensions":{
				"EXT_texture_webp":{
					"source":7
				}
			},
			"sampler":0
		},
		{
			"extensions":{
				"EXT_texture_webp":{
					"source":8
				}
			},
			"sampler":0
		},
		{
			"extensions":{
				"EXT_texture_webp":{
					"source":9
				}
			},
			"sampler":0
		},
		{
			"extensions":{
				"EXT_texture_webp":{
					"source":10
				}
			},
			"sampler":0
		},
		{
			"extensions":{
				"EXT_texture_webp":{
					"source":11
				}
			},
			"sampler":0
		},
		{
			"extensions":{
				"EXT_texture_webp":{
					"source":9
				}
			},
			"sampler":0
		},
		{
			"extensions":{
				"EXT_texture_webp":{
					"source":12
				}
			},
			"sampler":0
		},
		{
			"extensions":{
				"EXT_texture_webp":{
					"source":6
				}
			},
			"sampler":0
		},
		{
			"extensions":{
				"EXT_texture_webp":{
					"source":9
				}
			},
			"sampler":0
		},
		{
			"extensions":{
				"EXT_texture_webp":{
					"source":7
				}
			},
			"sampler":0
		}
	],
	"images":[
		{
			"mimeType":"image/webp",
			"name":"Image_8",
			"uri":"Image_8.webp"
		},
		{
			"mimeType":"image/webp",
			"name":"Image_9",
			"uri":"Image_9.webp"
		},
		{
			"mimeType":"image/webp",
			"name":"Image_7",
			"uri":"Image_7.webp"
		},
		{
			"mimeType":"image/webp",
			"name":"Image_11",
			"uri":"Image_11.webp"
		},
		{
			"mimeType":"image/webp",
			"name":"Image_12",
			"uri":"Image_12.webp"
		},
		{
			"mimeType":"image/webp",
			"name":"Image_10",
			"uri":"Image_10.webp"
		},
		{
			"mimeType":"image/webp",
			"name":"Image_1",
			"uri":"Image_1.webp"
		},
		{
			"mimeType":"image/webp",
			"name":"Image_0",
			"uri":"Image_0.webp"
		},
		{
			"mimeType":"image/webp",
			"name":"Image_4",
			"uri":"Image_4.webp"
		},
		{
			"mimeType":"image/webp",
			"name":"Image_2",
			"uri":"Image_2.webp"
		},
		{
			"mimeType":"image/webp",
			"name":"Image_3",
			"uri":"Image_3.webp"
		},
		{
			"mimeType":"image/webp",
			"name":"Image_6",
			"uri":"Image_6.webp"
		},
		{
			"mimeType":"image/webp",
			"name":"Image_5",
			"uri":"Image_5.webp"
		}
	],
	"accessors":[
		{
			"bufferView":0,
			"componentType":5126,
			"count":53760,
			"max":[
				1.1285638809204102,
				0.3691500127315521,
				1.0430235862731934
			],
			"min":[
				-1.113972783088684,
				-0.23223423957824707,
				0.49617666006088257
			],
			"type":"VEC3"
		},
		{
			"bufferView":1,
			"componentType":5126,
			"count":53760,
			"type":"VEC3"
		},
		{
			"bufferView":2,
			"componentType":5126,
			"count":53760,
			"type":"VEC2"
		},
		{
			"bufferView":3,
			"componentType":5126,
			"count":53760,
			"type":"VEC2"
		},
		{
			"bufferView":4,
			"componentType":5123,
			"count":53760,
			"normalized":true,
			"type":"VEC4"
		},
		{
			"bufferView":5,
			"componentType":5123,
			"count":53760,
			"type":"SCALAR"
		},
		{
			"bufferView":6,
			"componentType":5126,
			"count":49296,
			"max":[
				1.362902283668518,
				0.4626976549625397,
				1.1179324388504028
			],
			"min":[
				-1.362902283668518,
				-0.46048516035079956,
				0.0006284588016569614
			],
			"type":"VEC3"
		},
		{
			"bufferView":7,
			"componentType":5126,
			"count":49296,
			"type":"VEC3"
		},
		{
			"bufferView":8,
			"componentType":5126,
			"count":49296,
			"type":"VEC2"
		},
		{
			"bufferView":9,
			"componentType":5123,
			"count":49296,
			"type":"SCALAR"
		},
		{
			"bufferView":10,
			"componentType":5126,
			"count":3552,
			"max":[
				1.1003618240356445,
				0.34273001551628113,
				1.0083587169647217
			],
			"min":[
				-1.1003618240356445,
				0.24733799695968628,
				0.21361279487609863
			],
			"type":"VEC3"
		},
		{
			"bufferView":11,
			"componentType":5126,
			"count":3552,
			"type":"VEC3"
		},
		{
			"bufferView":12,
			"componentType":5126,
			"count":3552,
			"type":"VEC2"
		},
		{
			"bufferView":13,
			"componentType":5126,
			"count":3552,
			"type":"VEC3"
		},
		{
			"bufferView":14,
			"componentType":5123,
			"count":3552,
			"type":"SCALAR"
		},
		{
			"bufferView":15,
			"componentType":5126,
			"count":20376,
			"max":[
				1.0533117055892944,
				0.3015304207801819,
				1.0057995319366455
			],
			"min":[
				-1.053311824798584,
				-0.4448564648628235,
				0.3166033625602722
			],
			"type":"VEC3"
		},
		{
			"bufferView":16,
			"componentType":5126,
			"count":20376,
			"type":"VEC3"
		},
		{
			"bufferView":17,
			"componentType":5126,
			"count":20376,
			"type":"VEC2"
		},
		{
			"bufferView":18,
			"componentType":5126,
			"count":20376,
			"type":"VEC3"
		},
		{
			"bufferView":19,
			"componentType":5123,
			"count":20376,
			"type":"SCALAR"
		},
		{
			"bufferView":20,
			"componentType":5126,
			"count":3168,
			"max":[
				0.6555450558662415,
				0.23987022042274475,
				0.9413919448852539
			],
			"min":[
				-0.6567839980125427,
				-0.022404557093977928,
				0.5377160310745239
			],
			"type":"VEC3"
		},
		{
			"bufferView":21,
			"componentType":5126,
			"count":3168,
			"type":"VEC3"
		},
		{
			"bufferView":22,
			"componentType":5126,
			"count":3168,
			"type":"VEC2"
		},
		{
			"bufferView":23,
			"componentType":5126,
			"count":3168,
			"type":"VEC3"
		},
		{
			"bufferView":24,
			"componentType":5123,
			"count":3168,
			"type":"SCALAR"
		},
		{
			"bufferView":25,
			"componentType":5126,
			"count":9324,
			"max":[
				0.9331958889961243,
				0.27974411845207214,
				1.0045995712280273
			],
			"min":[
				-0.9331958293914795,
				-0.438836008310318,
				0.48493313789367676
			],
			"type":"VEC3"
		},
		{
			"bufferView":26,
			"componentType":5126,
			"count":9324,
			"type":"VEC3"
		},
		{
			"bufferView":27,
			"componentType":5126,
			"count":9324,
			"type":"VEC2"
		},
		{
			"bufferView":28,
			"componentType":5126,
			"count":9324,
			"type":"VEC3"
		},
		{
			"bufferView":29,
			"componentType":5123,
			"count":9324,
			"type":"SCALAR"
		}
	],
	"bufferViews":[
		{
			"buffer":0,
			"byteLength":645120,
			"byteOffset":0,
			"target":34962
		},
		{
			"buffer":0,
			"byteLength":645120,
			"byteOffset":645120,
			"target":34962
		},
		{
			"buffer":0,
			"byteLength":430080,
			"byteOffset":1290240,
			"target":34962
		},
		{
			"buffer":0,
			"byteLength":430080,
			"byteOffset":1720320,
			"target":34962
		},
		{
			"buffer":0,
			"byteLength":430080,
			"byteOffset":2150400,
			"target":34962
		},
		{
			"buffer":0,
			"byteLength":107520,
			"byteOffset":2580480,
			"target":34963
		},
		{
			"buffer":0,
			"byteLength":591552,
			"byteOffset":2688000,
			"target":34962
		},
		{
			"buffer":0,
			"byteLength":591552,
			"byteOffset":3279552,
			"target":34962
		},
		{
			"buffer":0,
			"byteLength":394368,
			"byteOffset":3871104,
			"target":34962
		},
		{
			"buffer":0,
			"byteLength":98592,
			"byteOffset":4265472,
			"target":34963
		},
		{
			"buffer":0,
			"byteLength":42624,
			"byteOffset":4364064,
			"target":34962
		},
		{
			"buffer":0,
			"byteLength":42624,
			"byteOffset":4406688,
			"target":34962
		},
		{
			"buffer":0,
			"byteLength":28416,
			"byteOffset":4449312,
			"target":34962
		},
		{
			"buffer":0,
			"byteLength":42624,
			"byteOffset":4477728,
			"target":34962
		},
		{
			"buffer":0,
			"byteLength":7104,
			"byteOffset":4520352,
			"target":34963
		},
		{
			"buffer":0,
			"byteLength":244512,
			"byteOffset":4527456,
			"target":34962
		},
		{
			"buffer":0,
			"byteLength":244512,
			"byteOffset":4771968,
			"target":34962
		},
		{
			"buffer":0,
			"byteLength":163008,
			"byteOffset":5016480,
			"target":34962
		},
		{
			"buffer":0,
			"byteLength":244512,
			"byteOffset":5179488,
			"target":34962
		},
		{
			"buffer":0,
			"byteLength":40752,
			"byteOffset":5424000,
			"target":34963
		},
		{
			"buffer":0,
			"byteLength":38016,
			"byteOffset":5464752,
			"target":34962
		},
		{
			"buffer":0,
			"byteLength":38016,
			"byteOffset":5502768,
			"target":34962
		},
		{
			"buffer":0,
			"byteLength":25344,
			"byteOffset":5540784,
			"target":34962
		},
		{
			"buffer":0,
			"byteLength":38016,
			"byteOffset":5566128,
			"target":34962
		},
		{
			"buffer":0,
			"byteLength":6336,
			"byteOffset":5604144,
			"target":34963
		},
		{
			"buffer":0,
			"byteLength":111888,
			"byteOffset":5610480,
			"target":34962
		},
		{
			"buffer":0,
			"byteLength":111888,
			"byteOffset":5722368,
			"target":34962
		},
		{
			"buffer":0,
			"byteLength":74592,
			"byteOffset":5834256,
			"target":34962
		},
		{
			"buffer":0,
			"byteLength":111888,
			"byteOffset":5908848,
			"target":34962
		},
		{
			"buffer":0,
			"byteLength":18648,
			"byteOffset":6020736,
			"target":34963
		}
	],
	"samplers":[
		{
			"magFilter":9729,
			"minFilter":9987
		}
	],
	"buffers":[
		{
			"byteLength":6039384,
			"uri":"sofa.bin"
		}
	]
}
