{
	"asset":{
		"generator":"Khronos glTF Blender I/O v5.0.21",
		"version":"2.0"
	},
	"scene":0,
	"scenes":[
		{
			"name":"Scene",
			"nodes":[
				0
			]
		}
	],
	"nodes":[
		{
			"mesh":0,
			"name":"teapot",
			"rotation":[
				0.70710688829422,
				0,
				0,
				0.7071066498756409
			]
		}
	],
	"meshes":[
		{
			"name":"teapot.003",
			"primitives":[
				{
					"attributes":{
						"POSITION":0,
						"NORMAL":1
					},
					"indices":2
				}
			]
		}
	],
	"accessors":[
		{
			"bufferView":0,
			"componentType":5126,
			"count":14071,
			"max":[
				3.881129026412964,
				3.560149908065796,
				2.2604129314422607
			],
			"min":[
				-3.3906190395355225,
				0,
				-2.2604129314422607
			],
			"type":"VEC3"
		},
		{
			"bufferView":1,
			"componentType":5126,
			"count":14071,
			"type":"VEC3"
		},
		{
			"bufferView":2,
			"componentType":5123,
			"count":18960,
			"type":"SCALAR"
		}
	],
	"bufferViews":[
		{
			"buffer":0,
			"byteLength":168852,
			"byteOffset":0,
			"target":34962
		},
		{
			"buffer":0,
			"byteLength":168852,
			"byteOffset":168852,
			"target":34962
		},
		{
			"buffer":0,
			"byteLength":37920,
			"byteOffset":337704,
			"target":34963
		}
	],
	"buffers":[
		{
			"byteLength":375624,
			"uri":"teapot.bin"
		}
	]
}
